<?xml version="1.0" standalone="no"?>
<!DOCTYPE svg PUBLIC "-//W3C//DTD SVG 20010904//EN"
 "http://www.w3.org/TR/2001/REC-SVG-20010904/DTD/svg10.dtd">
<svg version="1.0" xmlns="http://www.w3.org/2000/svg"
 width="333.000000pt" height="193.000000pt" viewBox="0 0 333.000000 193.000000"
 preserveAspectRatio="xMidYMid meet">

<g transform="translate(0.000000,193.000000) scale(0.100000,-0.100000)"
fill="#000000" stroke="none">
<path d="M221 1830 c-62 -15 -70 -32 -96 -206 -13 -87 -35 -232 -49 -320 -31
-194 -31 -189 -6 -214 49 -49 327 -4 437 71 103 71 116 190 28 267 l-32 29 38
40 c40 43 59 94 59 156 0 68 -47 129 -130 166 -35 16 -65 20 -130 20 -47 -1
-100 -5 -119 -9z m158 -120 c42 -12 91 -57 91 -82 0 -65 -77 -118 -173 -118
-39 0 -57 4 -57 13 1 28 27 174 34 185 9 15 59 15 105 2z m17 -349 c77 -35 89
-90 28 -120 -63 -32 -234 -53 -234 -29 0 15 20 139 25 156 7 20 132 15 181 -7z"/>
<path d="M1523 1819 c-11 -6 -28 -25 -37 -43 -8 -17 -38 -171 -66 -343 -57
-349 -57 -353 9 -353 53 0 71 24 82 107 4 37 8 76 9 86 0 24 13 22 95 -18 42
-20 102 -61 144 -100 83 -74 115 -82 156 -40 14 13 25 29 25 35 0 36 -56 99
-138 158 l-44 31 60 30 c124 62 173 181 121 289 -26 54 -119 125 -189 146 -67
20 -200 29 -227 15z m192 -148 c45 -21 99 -75 110 -109 17 -58 -69 -111 -195
-119 -44 -3 -80 -2 -80 3 0 5 9 61 20 124 11 63 20 116 20 118 0 10 93 -2 125
-17z"/>
<path d="M2893 1819 c-12 -4 -28 -18 -36 -31 -15 -24 -128 -630 -127 -684 0
-61 71 -87 108 -40 11 15 25 64 37 130 l18 106 84 -89 c84 -90 160 -141 210
-141 31 0 73 43 73 74 0 20 -12 33 -52 59 -51 32 -218 198 -218 214 1 5 24 26
52 48 28 22 104 92 169 155 94 91 119 121 119 142 0 34 -39 63 -71 53 -13 -4
-90 -70 -173 -146 -83 -76 -152 -137 -153 -135 -2 1 8 55 21 119 18 90 21 121
12 138 -14 27 -44 39 -73 28z"/>
<path d="M780 1800 c-30 -30 -38 -58 -71 -233 -32 -174 -35 -228 -18 -326 10
-55 18 -72 53 -108 34 -36 52 -46 106 -59 229 -54 386 95 475 451 59 236 58
275 -9 275 -52 0 -73 -32 -96 -145 -48 -240 -99 -368 -168 -425 -68 -56 -159
-53 -204 6 -43 58 -45 116 -10 317 43 239 43 239 7 255 -35 16 -42 15 -65 -8z"/>
<path d="M2448 1738 c-33 -35 -114 -131 -179 -214 -65 -83 -130 -156 -144
-162 -14 -7 -25 -20 -25 -32 0 -10 -20 -53 -45 -93 -55 -89 -61 -124 -24 -146
44 -25 76 -3 141 98 l58 89 97 7 c54 4 106 9 115 11 18 5 18 6 38 -96 19 -101
57 -138 111 -109 33 17 40 53 24 122 -12 52 -23 202 -38 489 -3 58 -25 98 -54
98 -7 0 -41 -28 -75 -62z m2 -257 l0 -79 -65 -4 c-36 -1 -64 -1 -63 2 9 20
114 159 121 159 4 1 7 -35 7 -78z"/>
<path d="M0 960 l0 -40 1645 0 1645 0 0 40 0 40 -1645 0 -1645 0 0 -40z"/>
<path d="M2668 864 c-34 -18 -41 -45 -63 -234 -9 -80 -28 -206 -42 -280 -38
-204 -39 -221 -18 -237 26 -18 69 -16 87 5 30 33 39 63 58 194 11 73 28 172
36 221 l16 87 80 -122 c82 -126 201 -280 264 -343 57 -57 119 -47 148 25 22
55 96 504 96 582 0 76 -18 108 -60 108 -46 0 -66 -35 -74 -132 -8 -99 -53
-409 -61 -416 -3 -3 -6 -3 -8 -1 -2 2 -26 31 -53 64 -69 82 -169 229 -244 358
-80 138 -102 154 -162 121z"/>
<path d="M1202 823 c-32 -32 -27 -73 11 -91 17 -8 63 -13 117 -13 65 0 90 -3
90 -12 0 -39 -50 -489 -55 -498 -11 -17 4 -58 26 -70 29 -15 76 6 95 42 15 29
33 163 54 384 17 186 1 167 138 160 130 -7 157 0 180 48 12 24 11 32 -3 53
l-16 24 -307 -2 c-307 -2 -307 -2 -330 -25z"/>
<path d="M2293 821 c-32 -27 -149 -164 -242 -284 -45 -58 -95 -116 -111 -127
-17 -12 -30 -29 -30 -38 0 -9 -9 -30 -21 -47 -11 -16 -34 -56 -50 -88 -33 -64
-31 -93 6 -103 52 -13 68 -2 130 93 68 104 61 100 220 105 l79 3 8 -50 c23
-135 61 -185 113 -151 39 25 46 55 30 122 -14 63 -35 328 -35 453 0 42 -6 87
-13 101 -16 31 -54 36 -84 11z m-33 -290 l0 -78 -61 -7 c-34 -4 -63 -5 -65 -3
-4 4 115 167 122 167 2 0 4 -35 4 -79z"/>
<path d="M1080 25 l0 -25 1106 0 1105 0 -3 23 -3 22 -1102 3 -1103 2 0 -25z"/>
</g>
</svg>
